<svg width="600" height="800" viewBox="0 0 600 800" xmlns="http://www.w3.org/2000/svg">
  <!-- Background: Cream (#FDFBF7) -->
  <rect width="100%" height="100%" fill="#FDFBF7"/>
  
  <!-- Title Placeholder (Visual Balance) -->
  <text x="300" y="150" font-family="sans-serif" font-size="48" font-weight="bold" fill="#3D405B" text-anchor="middle">SURVIVAL</text>
  <text x="300" y="210" font-family="sans-serif" font-size="48" font-weight="bold" fill="#E07A5F" text-anchor="middle">INDONESIAN</text>
  <text x="300" y="260" font-family="sans-serif" font-size="24" fill="#81B29A" text-anchor="middle">SPEAK LIKE A LOCAL, NOT A TEXTBOOK</text>

  <!-- The Gunungan (Stylized Mountain/Tree of Life) -->
  <g transform="translate(150, 350)">
    <!-- Main Body: Terracotta (#E07A5F) -->
    <path d="M150 0 C 150 0, 280 200, 280 400 L 20 400 C 20 200, 150 0, 150 0 Z" fill="#E07A5F" opacity="0.9"/>
    
    <!-- Inner Detail: Sage Green (#81B29A) -->
    <path d="M150 50 C 150 50, 230 220, 230 400 L 70 400 C 70 220, 150 50, 150 50 Z" fill="#81B29A" opacity="0.8"/>
    
    <!-- Center Core: Cream/Dark Mix -->
    <path d="M150 100 C 150 100, 190 250, 190 400 L 110 400 C 110 250, 150 100, 150 100 Z" fill="#3D405B" opacity="0.2"/>
  </g>

  <!-- Decorative Footer Pattern -->
  <rect x="0" y="760" width="600" height="20" fill="#E07A5F"/>
  <rect x="0" y="780" width="600" height="20" fill="#81B29A"/>
</svg>